<?xml version='1.0' encoding='utf-8'?>
<svg xmlns="http://www.w3.org/2000/svg" enable-background="new 197.7366 230.0386 1517.316 1173.3656" version="1.1" viewBox="197.7366 230.0386 1517.316 1173.3656">
<g stroke-width=".0938">
	<path d="m1080 268.62c8.22-1.24 16.43-2.79 24.73-3.37 34.61 75.84 68.83 151.87 103.31 227.77-0.27 0.19-0.8201 0.56-1.0901 0.75-240.78 41.78-481.6 83.39-722.36 125.28-0.23-0.18-0.7-0.53-0.93-0.71-0.25-1.85-0.73-3.65-1.34-5.39-21.83-62.59-43.63-125.19-65.42-187.79-6.29-18.26-12.97-36.4-18.85-54.8 47.94-7.49 95.98-14.28 143.95-21.6 179.34-26.68 358.66-53.48 538-80.14z" fill="#E0C8B0" stroke="#E0C8B0"/>
	<path d="m1399.2 265.06c58.73 49.17 117.22 98.66 175.82 148.01 31.35 26.27 62.58 52.69 93.85 79.06 2.49 1.52-0.58 3.73-1.51 5.23-64.3 77.66-128.51 155.41-192.84 233.04-0.9399-0.64-1.86-1.26-2.76-1.88-1.63 1.11-3.4299 2.05-4.67 3.61-1.73 2.68-2.1899 6.13-4.7 8.3-1.75 1.56-2.8 3.65-3.41 5.88-74.24-74.78-148.36-149.7-222.76-224.34-5.88-6.18-12.02-12.1-17.91-18.25-3.4501-3.28-6.5-7.01-10.34-9.84l-0.98-0.11c0.27-0.19 0.8201-0.56 1.0901-0.75 4.49-4.19 7.9099-9.39 12.06-13.92 50.82-60.85 101.67-121.67 152.49-182.52 8.88-10.49 17.51-21.19 26.57-31.52z" fill="#D5B699" stroke="#D5B699"/>
	<path d="m243.05 486.87c13.48 6.59 26.44 14.23 39.65 21.34 64.9 35.49 129.79 70.98 194.68 106.47 2.14 1.14 4.3 2.25 6.3 3.66 0.23 0.18 0.7 0.53 0.93 0.71 0.27 0.21 0.79 0.63 1.06 0.84 34.98 60.42 70.49 120.54 105.57 180.9 13.51 23.72 27.57 47.14 41.23 70.79 7.15 11.92 13.89 24.09 21.18 35.93-4.45-0.17-7.85-3.5-11.6-5.47-51.94-29.61-104.06-58.95-155.87-88.78-0.2 1.94-0.39 3.89-0.5 5.86-0.21-1.73-0.37-3.47-0.53-5.19-27.65-16.43-55.62-32.36-83.25-48.79-4.75-6.46-7.97-13.99-12.24-20.79-38.85-68.13-77.72-136.24-116.57-204.36-9.9701-17.73-20.38-35.23-30.04-53.12z" fill="#D3B9A0" stroke="#D3B9A0"/>
	<path d="m484.61 619.05c240.76-41.89 481.58-83.5 722.36-125.28l0.98 0.11c-3.11 102.15-7.2899 204.27-10.38 306.42-178.83 35.99-357.68 71.91-536.51 107.95-1.78 0.32-3.57 0.63-5.35 0.92-0.31-0.07-0.92-0.22-1.22-0.29-0.29-0.48-0.57-0.93-0.84-1.37-7.29-11.84-14.03-24.01-21.18-35.93-13.66-23.65-27.72-47.07-41.23-70.79 0.68-1.89 0.54-3.9-0.71-5.5099-5.84-8.94-10.71-18.45-16.21-27.59-5.07-10.06-11.36-19.43-16.76-29.3-6.82-11.33-12.57-23.25-19.5-34.52-7.88-12.68-15.09-25.77-22.27-38.84-8.18-13.83-15.96-27.91-24.1-41.77-1.12-2.33-3.9-2.52-6.02-3.37-0.2699-0.2101-0.7899-0.6301-1.0599-0.8401z" fill="#A08165" stroke="#A08165"/>
	<path d="m1208 493.88c3.8401 2.83 6.89 6.56 10.34 9.84 5.89 6.15 12.03 12.07 17.91 18.25-1.95 64.34-4.2799 128.68-6.1899 193.03-0.9301 12.22-0.53 24.49-1.38 36.72-0.49 14.2-0.47 28.41-1.39 42.59-9.9 1.98-19.78 4-29.67 5.99 3.0899-102.15 7.2699-204.27 10.38-306.42z" fill="#78492D" stroke="#78492D"/>
	<path d="m1236.2 521.97c74.4 74.64 148.52 149.56 222.76 224.34-0.08 0.4-0.26 1.18-0.34 1.57-77.17 15.25-154.24 31.02-231.38 46.43 0.92-14.18 0.9-28.39 1.39-42.59 0.85-12.23 0.45-24.5 1.38-36.72 1.91-64.35 4.24-128.69 6.19-193.03z" fill="#916945" stroke="#916945"/>
	<path d="m485.67 619.89c2.12 0.85 4.9 1.04 6.02 3.37 8.14 13.86 15.92 27.94 24.1 41.77 7.18 13.07 14.39 26.16 22.27 38.84 6.93 11.27 12.68 23.19 19.5 34.52 5.4 9.87 11.69 19.24 16.76 29.3 5.5 9.14 10.37 18.65 16.21 27.59 1.25 1.61 1.39 3.62 0.71 5.5099-35.08-60.36-70.59-120.48-105.57-180.9z" fill="#927153" stroke="#927153"/>
	<path d="m1467.1 732.13c1.2401-1.56 3.04-2.5 4.67-3.61 0.9 0.62 1.8201 1.24 2.76 1.88-4.27 5.89-9.72 10.89-13.57 17.07 49.05 5.72 98.11 11.28 147.15 16.97 0.77-0.03 1.41 0.25 1.9301 0.84-44.91 9.4-89.84 18.76-134.75 28.16-5.67 1.26-11.38 2.29-16.99 3.77-18.89 3.32-37.56 7.81-56.38 11.52-203.3 42.49-406.61 84.98-609.92 127.42-8.93 1.64-17.74 4.16-26.72 5.27-30.8-8.53-61.45-17.77-92.19-26.61-5.73-2.06-11.93-2.77-17.35-5.64 1.78-0.29 3.57-0.6 5.35-0.92 178.83-36.04 357.68-71.96 536.51-107.95 9.89-1.99 19.77-4.01 29.67-5.99 77.14-15.41 154.21-31.18 231.38-46.43 0.08-0.39 0.26-1.17 0.34-1.57 0.61-2.23 1.66-4.32 3.41-5.88 2.5101-2.1699 2.9701-5.6199 4.7-8.2999z" fill="#D5B79D" stroke="#D5B79D"/>
	<path d="m1401.9 808.73c18.82-3.71 37.49-8.2 56.38-11.52-5.27 128.91-10.59 257.82-15.86 386.73-0.12 3.1801-0.11 6.39-0.5901 9.5701-253.4 58.23-506.76 116.6-760.14 174.88-9.04-152.12-17.81-304.27-26.69-456.41-0.13-0.78-0.38-2.33-0.5-3.1 0.3 0.07 0.91 0.22 1.22 0.29 5.42 2.87 11.62 3.58 17.35 5.64 30.74 8.84 61.39 18.08 92.19 26.61 8.98-1.11 17.79-3.63 26.72-5.27 203.31-42.44 406.62-84.93 609.92-127.42z" fill="#AF8B67" stroke="#AF8B67"/>
	<path d="m486.18 813.26c51.81 29.83 103.93 59.17 155.87 88.78 3.75 1.97 7.15 5.3 11.6 5.47 0.27 0.44 0.55 0.89 0.84 1.37 0.12 0.77 0.37 2.32 0.5 3.1 8.88 152.14 17.65 304.29 26.69 456.41-61.09-105.3-121.92-210.76-182.93-316.11-1.24-1.86-1.11-4.15-1.22-6.27-3.87-75.63-8.07-151.26-11.85-226.89 0.11-1.97 0.3-3.92 0.5-5.86z" fill="#C1A389" stroke="#C1A389"/>
</g>
</svg>